# xmcd
#
# Track frame offsets:
#	150
#	13753
#	32175
#	49578
#	62320
#	78778
#	90583
#	104278
#	121033
#	138568
#	152720
#
# Disc length: 2245 seconds
#
# Revision: 0
# Processed by: cddbd v1.5.2PL0 Copyright (c) Steve Scherf et al.
# Submitted via: dBpowerAMP V4.0
#
DISCID=7c08c30b
DTITLE=Various Artist - CDX Volume 23
DYEAR=1900
DGENRE=
TTITLE0=Marty Stuart - Burn Me Down
TTITLE1=Little Texas - First Time For Everything
TTITLE2=Hank Williams, Jr. - Hotel Whiskey
TTITLE3=Remingtons - I Could Love You (With My Eyes Closed)
TTITLE4=Lee Greenwood - If You'll Let This Fool Back In
TTITLE5=Vince Gill - Take Your Memory With You
TTITLE6=Faron Young and Ray Price - The Memories That Last
TTITLE7=Steve Wariner - Tips Of My Fingers
TTITLE8=Tracy Lawrence - Today's Lonely Fool
TTITLE9=Rob Crosby - Working Woman
TTITLE10=Eddie Rabbitt - You Look Like An Angel
EXTD=
EXTT0=
EXTT1=
EXTT2=
EXTT3=
EXTT4=
EXTT5=
EXTT6=
EXTT7=
EXTT8=
EXTT9=
EXTT10=
PLAYORDER=
